<svg xmlns="http://www.w3.org/2000/svg" viewBox="0 0 91.7 78.8"><title>Ресурс 1</title><g id="Слой_2" data-name="Слой 2"><g id="Layer_1" data-name="Layer 1"><path d="M16.75,78.8A11.86,11.86,0,0,1,4.9,67V26.8H0v-8H7.38A113.44,113.44,0,0,1,32.7,11V6.4H29.5V0H62.2V6.4H59V11A116.53,116.53,0,0,1,84.32,18.8H91.7v8H86.6V67A11.86,11.86,0,0,1,74.75,78.8Zm-8-11.75a8.16,8.16,0,0,0,8.15,8.15H75a8.16,8.16,0,0,0,8.15-8.15V26.9H8.7ZM88,23.1v-.6H3.7v.6ZM73.85,18.8c-10.25-3.47-19.25-5.1-28-5.1a84.92,84.92,0,0,0-28.09,5.1Zm-28-8.9a78,78,0,0,1,9.95.68V6.4H35.9v4.18A78,78,0,0,1,45.85,9.9Z"/><path d="M84.15,19.65a114.6,114.6,0,0,0-26-7.9V5.55h3.2V.85h-31v4.7h3.2v6.2a111.67,111.67,0,0,0-26,7.9H.85V26h4.9V67a11,11,0,0,0,11,11h58a11,11,0,0,0,11-11V26h5.1v-6.3ZM35.05,5.55h21.6v6a79.66,79.66,0,0,0-10.8-.8,79.66,79.66,0,0,0-10.8.8Zm10.8,7.3c10.2,0,20.7,2.2,32.9,6.8H13C25.15,15,35.65,12.85,45.85,12.85ZM84,67.05a9,9,0,0,1-9,9H16.85a9,9,0,0,1-9-9v-41H84ZM88.85,24h-86v-2.3h86Z"/></g></g></svg>