<svg xmlns="http://www.w3.org/2000/svg" viewBox="0 0 16.43 16.43"><title>Asset 1</title><g data-name="Layer 2"><path d="M2.28 16.43A2.28 2.28 0 0 1 0 14.15v-2.84c0-.75.36-1.76 2.07-2.25l2.26-.74L4.15 8a4.81 4.81 0 0 1-.72-2.5v-.7a4.82 4.82 0 0 1 9.64 0v.7a4.85 4.85 0 0 1-.75 2.56l-.21.32.36.12 1.89.53c1.71.5 2.07 1.5 2.07 2.26v2.84a2.28 2.28 0 0 1-2.28 2.28zm3.19-6.74l-3 .83c-.64.19-1 .45-1 .79v2.84a.76.76 0 0 0 .76.76h11.92a.76.76 0 0 0 .76-.76v-2.84c0-.34-.33-.61-1-.79l-3.28-.85h-.09a4.76 4.76 0 0 1-2.33.62 4.69 4.69 0 0 1-2.41-.67l-.14-.08zm2.78-8.17A3.3 3.3 0 0 0 5 4.82v.7a3.3 3.3 0 0 0 6.6 0v-.7a3.3 3.3 0 0 0-3.35-3.3z" data-name="Layer 1"/></g></svg>