<svg xmlns="http://www.w3.org/2000/svg" viewBox="0 0 30.53 26.66"><title>Layer 1</title><g data-name="Layer 2"><g data-name="Layer 1"><path d="M13.65 13.81V13a2.78 2.78 0 0 1 .29-1.26 3.33 3.33 0 0 1 .71-1l.83-.74a3.53 3.53 0 0 0 .71-.79 1.64 1.64 0 0 0 .3-.94 1.29 1.29 0 0 0-.49-1 1.75 1.75 0 0 0-1.19-.42 2.84 2.84 0 0 0-1.81.74l-1.25-1.51A4.53 4.53 0 0 1 15 4.84a4.13 4.13 0 0 1 2.66.89 2.86 2.86 0 0 1 1.13 2.36 3.17 3.17 0 0 1-.32 1.43 3.39 3.39 0 0 1-.76 1.06c-.3.28-.59.54-.89.79a4.45 4.45 0 0 0-.75.82 1.63 1.63 0 0 0-.31 1v.67zm0 3.55V15.3h2.13v2.06z"/><path d="M26 26.66l-6.12-4.78H3.29A3.31 3.31 0 0 1 0 18.59V3.29A3.31 3.31 0 0 1 3.29 0h24a3.31 3.31 0 0 1 3.29 3.29v15.3a3.31 3.31 0 0 1-3.29 3.29H26zM3.29 1.76a1.55 1.55 0 0 0-1.57 1.57v15.3a1.55 1.55 0 0 0 1.57 1.57h17.53l3.44 2.6v-2.6h3a1.55 1.55 0 0 0 1.57-1.57V3.33a1.55 1.55 0 0 0-1.57-1.57z"/></g></g></svg>