<svg xmlns="http://www.w3.org/2000/svg" viewBox="0 0 87.12 82.08"><title>Ресурс 1</title><g data-name="Слой 2"><path d="M36.25 7.89c-.43 11.47-1.92 18.26-9 28.5A5 5 0 0 0 23 34H5a5 5 0 0 0-5 5v36a5 5 0 0 0 5 5h18a5 5 0 0 0 4.16-2.25 27.07 27.07 0 0 0 3 2.19 14.14 14.14 0 0 0 6.06 1.84c5.1.53 13.47.14 32.78.22a2 2 0 0 0 1.25-.47c3.89-3.17 5.57-6.21 6.34-9.62a2 2 0 0 0 1-.66 14.32 14.32 0 0 0 3.28-11.44 2 2 0 0 0 .72-.56 13.91 13.91 0 0 0 2.88-12.94 10.56 10.56 0 0 0 2.63-8C86.57 35 84.12 31.56 81 31H55.25c1.54-10.13.52-19.44-2.91-25.47A10.28 10.28 0 0 0 45.12.08c-4.69-.62-8.47 2.32-8.87 7.81zM43.72 4c1.94-.2 4.1 1.3 5.16 3.5C51.8 12.67 53 22.3 51 32.64A2.09 2.09 0 0 0 53 35h27.44a4.75 4.75 0 0 1 2.66 3.75A6.8 6.8 0 0 1 81 44H67a2 2 0 1 0 0 4h13.75a9.81 9.81 0 0 1-1.84 8H67a2 2 0 1 0 0 4h9.78a9.81 9.81 0 0 1-1.84 8H67a2 2 0 1 0 0 4h5.5c-.62 2.14-1.74 3.78-4.34 6-18.59-.06-27.21.23-31.53-.22a9.46 9.46 0 0 1-4.41-1.25A47.57 47.57 0 0 1 28 73.3V42.11c9.29-11.82 11.79-21.75 12.25-34.06.59-2.68 1.96-3.87 3.47-4.05zM5 38h18a1 1 0 0 1 1 1v36a1 1 0 0 1-1 1H5a1 1 0 0 1-1-1V39a1 1 0 0 1 1-1zm9 25a3 3 0 1 0 3 3 3 3 0 0 0-3-3z" data-name="Layer 1"/></g></svg>