<svg xmlns="http://www.w3.org/2000/svg" viewBox="0 0 91.7 78.8"><title>Ресурс 1</title><g data-name="Слой 2"><g data-name="Layer 1"><path d="M16.75 78.8A11.86 11.86 0 0 1 4.9 67V26.8H0v-8h7.38A113.44 113.44 0 0 1 32.7 11V6.4h-3.2V0h32.7v6.4H59V11a116.53 116.53 0 0 1 25.32 7.8h7.38v8h-5.1V67a11.86 11.86 0 0 1-11.85 11.8zm-8-11.75a8.16 8.16 0 0 0 8.15 8.15H75a8.16 8.16 0 0 0 8.15-8.15V26.9H8.7zM88 23.1v-.6H3.7v.6zm-14.15-4.3c-10.25-3.47-19.25-5.1-28-5.1a84.92 84.92 0 0 0-28.09 5.1zm-28-8.9a78 78 0 0 1 9.95.68V6.4H35.9v4.18a78 78 0 0 1 9.95-.68z"/><path d="M84.15 19.65a114.6 114.6 0 0 0-26-7.9v-6.2h3.2V.85h-31v4.7h3.2v6.2a111.67 111.67 0 0 0-26 7.9H.85V26h4.9v41a11 11 0 0 0 11 11h58a11 11 0 0 0 11-11V26h5.1v-6.3zm-49.1-14.1h21.6v6a79.66 79.66 0 0 0-10.8-.8 79.66 79.66 0 0 0-10.8.8zm10.8 7.3c10.2 0 20.7 2.2 32.9 6.8H13c12.15-4.65 22.65-6.8 32.85-6.8zM84 67.05a9 9 0 0 1-9 9H16.85a9 9 0 0 1-9-9v-41H84zM88.85 24h-86v-2.3h86z"/></g></g></svg>